<svg width="55" height="55" viewBox="0 0 55 55" fill="none" xmlns="http://www.w3.org/2000/svg">
<rect width="55" height="55" rx="10" fill="#202020"/>
<path d="M39.3285 46.3952C37.1316 48.506 34.733 48.1727 32.4241 47.1728C29.9806 46.1507 27.7389 46.1063 25.161 47.1728C21.9329 48.5504 20.2292 48.1505 18.3014 46.3952C7.3619 35.2188 8.97592 18.1987 21.3949 17.5766C24.4212 17.7321 26.5284 19.2208 28.2994 19.3541C30.9446 18.8209 33.4777 17.2877 36.3022 17.4877C39.6872 17.7543 42.2427 19.0875 43.924 21.4872C36.9299 25.6422 38.5887 34.7744 45 37.3296C43.7222 40.6625 42.0634 43.9732 39.3061 46.4174L39.3285 46.3952ZM28.0752 17.4433C27.7389 12.4883 31.7964 8.39995 36.4591 8C37.1092 13.7326 31.2136 17.9987 28.0752 17.4433Z" fill="black"/>
</svg>
