<?xml version="1.0" encoding="UTF-8"?>
<svg id="_Слой_2" data-name="Слой 2" xmlns="http://www.w3.org/2000/svg" viewBox="0 0 61.36 72.55">
  <g id="_Слой_2-2" data-name="Слой 2">
    <path d="m48.69,25.55c4.86-1.3,8.99-4.62,11.2-9.15,1.12-2.28,1.74-4.91,1.35-7.45-.45-2.91-2.82-4.98-5.26-6.35C52.79.8,48.84-.18,45.17.03c-3.02.18-5.82,1.28-8.45,2.73-5.02,2.78-9.72,6.28-14.07,10s-8.44,7.73-11.91,12.21-6.32,9.88-4.26,15.46c1.95,5.28,7.29,8.94,11.74,11.98,2.67,1.82,5.43,3.52,8.28,5.05,1.11.6,2.26,1.14,3.37,1.73-.03-.01,1,.55.49.25s.44.32.43.32c-.28-.22.38.43.5.66,1.35,2.68-2.07,5.12-4.1,6.05-2.65,1.22-5.37,1.46-8.23,1.48-.35,0-.69,0-1.04,0,.65.01-.56-.02-.61-.02-.76-.03-1.52-.07-2.28-.12-.68-.04-1.36-.09-2.03-.14-.23-.02-.46-.04-.68-.06-.13-.01-1.47-.21-.78-.09.75.13-.38-.08-.43-.08-.41-.08-1.22-.5-.05.02-.18-.08-.45-.13-.65-.19-.53-.18-.43-.14.31.11-.39-.17-.4-.17-.05,0,.7.3-.23-.14-.31-.19.83.49,0-.05-.15-.17.41.38.02,0-.04-.08-.21-.29-.4-.47-.56-.77-1-1.8-3.61-2.66-5.52-3-.52-.09-4.91-.53-3.99,1.12,3.01,5.42,10.09,7.1,15.79,7.75,5.41.62,11.32.94,16.63-.46,2.43-.64,5.11-1.74,6.84-3.63,1.92-2.1,2.43-4.72.56-7.04-1.74-2.17-4.48-3.28-6.88-4.53-2.61-1.36-4.94-2.74-7.12-4.22-4.02-2.73-8.92-5.78-10.23-10.77-1.42-5.38,2.3-10.82,5.63-14.68,3.73-4.32,7.86-8.3,12.29-11.89,2.16-1.75,4.4-3.41,6.7-4.97s4.62-3.15,7.14-4.26c1.29-.57,2.59-.79,3.89-1.04.62-.12-.92-.04.14,0,.92.04-.67-.16-.8-.19.86.25-.17-.08-.28-.12.47.2.42.18-.17-.09l.29.17-.33-.2c.31.25.35.27.12.06.24.22.47.47.65.74.24.36.44.85.58,1.31.44,1.5.2,3.1-.21,4.59-1.35,5-5.36,9.15-10.38,10.5-2.12.57.05,2.39,1,2.89,1.87,1,4.59,1.94,6.74,1.36h0Z"/>
  </g>
</svg>