<svg width="55" height="55" viewBox="0 0 55 55" fill="none" xmlns="http://www.w3.org/2000/svg">
<rect width="55" height="55" rx="10" fill="#202020"/>
<g clip-path="url(#clip0_80_21)">
<path d="M26.8122 27.0694L10.1492 44.6164C10.3363 45.2829 10.6726 45.8976 11.1323 46.4135C11.592 46.9294 12.163 47.3328 12.8016 47.5929C13.4402 47.853 14.1295 47.9629 14.8168 47.9142C15.5041 47.8655 16.1713 47.6595 16.7673 47.3119L35.5164 36.5792L26.8122 27.0694Z" fill="#EA4335"/>
<path d="M43.6615 24.0868L35.5538 19.4191L26.4275 27.4686L35.5909 36.5541L43.6369 31.9364C44.3497 31.5613 44.9467 30.9972 45.3633 30.3053C45.7798 29.6135 46.0001 28.8202 46.0001 28.0115C46.0001 27.2028 45.7798 26.4096 45.3633 25.7177C44.9467 25.0258 44.3497 24.4618 43.6369 24.0866L43.6615 24.0868Z" fill="#FBBC04"/>
<path d="M10.1491 11.3197C10.0484 11.694 9.99825 12.0801 10 12.4678V43.4681C10.0011 43.8557 10.0512 44.2415 10.1491 44.6164L27.3834 27.5187L10.1491 11.3197Z" fill="#4285F4"/>
<path d="M26.9364 27.9681L35.5536 19.4192L16.8294 8.63647C16.1249 8.22178 15.3237 8.00217 14.5073 8C12.4813 7.99604 10.7001 9.34756 10.1492 11.3073L26.9364 27.9681Z" fill="#34A853"/>
</g>
<defs>
<clipPath id="clip0_80_21">
<rect width="36" height="40" fill="white" transform="translate(10 8)"/>
</clipPath>
</defs>
</svg>
